<svg id="レイヤー_1" data-name="レイヤー 1" xmlns="http://www.w3.org/2000/svg" viewBox="0 0 1749.28 268.16"><defs><style>.cls-1{fill:#fff;}</style></defs><path class="cls-1" d="M1309.64,1098.05a94.78,94.78,0,0,0-34.33,6.43,94.78,94.78,0,0,0-34.33-6.43c-56.44,0-107.4,53.37-107.4,126.59,0,79.83,65.23,141.57,141.73,141.57S1417,1304.47,1417,1224.64C1417,1151.42,1366.08,1098.05,1309.64,1098.05Zm-34.33,43.47c10.87,6.47,25.24,25.22,25.24,46.37,0,15.5-10.24,27.71-25.24,27.71s-25.24-12.21-25.24-27.71C1250.07,1166.74,1264.44,1148,1275.31,1141.52Zm0,189.82A106.84,106.84,0,0,1,1168.41,1224c0-55.09,39.76-92.74,71-91.33a82.62,82.62,0,0,0-23.77,57c0,35.78,28.39,60.86,59.67,60.86s59.67-25.08,59.67-60.86a82.59,82.59,0,0,0-23.78-57c31.25-1.41,71,36.24,71,91.33A106.83,106.83,0,0,1,1275.31,1331.34Z" transform="translate(-1133.58 -1098.05)"/><polygon class="cls-1" points="415.07 59.53 415.07 87.54 430.71 87.54 430.71 139.07 388.68 59.53 340.16 59.53 340.16 87.54 355.81 87.54 355.81 173.27 340.16 173.27 340.16 201.28 404.32 201.28 404.32 173.27 388.68 173.27 388.68 121.73 430.71 201.28 463.59 201.28 463.59 87.54 479.24 87.54 479.24 59.53 415.07 59.53"/><polygon class="cls-1" points="612.56 113.97 612.56 59.53 489.17 59.53 489.17 113.97 517.18 113.97 517.18 87.54 532.25 87.54 532.25 173.27 511.79 173.27 511.79 201.28 589.94 201.28 589.94 173.27 569.47 173.27 569.47 87.54 584.55 87.54 584.55 113.97 612.56 113.97"/><polygon class="cls-1" points="745.51 113.97 745.51 59.53 622.12 59.53 622.12 113.97 650.13 113.97 650.13 87.54 665.21 87.54 665.21 173.27 644.74 173.27 644.74 201.28 722.89 201.28 722.89 173.27 702.42 173.27 702.42 87.54 717.5 87.54 717.5 113.97 745.51 113.97"/><path class="cls-1" d="M1904.6,1299.28c1.4-38.76,3.09-75.71.82-134.66h59.49c-2.09,43.82-2.92,74.09-.59,134.66Z" transform="translate(-1133.58 -1098.05)"/><path class="cls-1" d="M2035.83,1209c5.59-5,18.21-13.33,40-13.33,30.69,0,41.64,13.13,42.28,29.68.31,8.08-1.44,43.61-.5,73.89H2064c.53-15.14,1.06-30.28.47-45.42-.28-7.27-.76-20.32-11.43-20.32-10.89,0-14.71,11.24-16.17,19.31-2.75,15.35-1.92,31.09-2.45,46.43H1979.8c3.82-33.51,3.06-67.22,2.65-100.94h53.85Z" transform="translate(-1133.58 -1098.05)"/><path class="cls-1" d="M2200.61,1232.12l-1.44,67.16h-53.4c1.6-22,1.68-44.75,2.37-67.16H2135l.69-33.78h15.56l-.31-8.08c-.81-20.86,5.32-32.64,38.32-32.64a137.79,137.79,0,0,1,35.3,4.58l1.14,29.81c-6.08-2.22-19-6.53-24.31-5-3.3,1-3.23,4.83-3.23,11.3h23.12l-.89,33.78Z" transform="translate(-1133.58 -1098.05)"/><path class="cls-1" d="M2287,1207.42c7.54-6.66,15.75-11.71,27.08-11.71a53.77,53.77,0,0,1,8.27.82l2.06,38.9a41.46,41.46,0,0,0-11.18-1.35c-12.34,0-19.54,6.1-22.79,17.16-2.58,8.07-2.18,24.42-1.84,33.3.19,4.85.6,9.9,1.25,14.74h-53.55c1.64-26.65,2.46-50.47.52-100.94h49.84Z" transform="translate(-1133.58 -1098.05)"/><path class="cls-1" d="M2344.26,1201.37a335,335,0,0,1,60.24-5.66c31.79,0,47.13,11.51,47.69,25.65.82,21.4-1.9,37.55-1.23,77.92H2399.7c1.27-12.92.89-27,1.05-40.13-5.7,2-22.29,4.08-22.29,10.86,0,5.43,6.95,4.57,10.3,4.43a22.39,22.39,0,0,0,9.52-2.31l-7.69,27.86c-5.09.61-16,1.65-21.14,1.65-29,0-42.83-14.47-43.41-29.82-1.62-42.39,72.16-31.49,71.72-43.19-.22-5.46-3.4-6.73-9.14-6.73-15.57,0-33.22,3.93-47.73,8.58Z" transform="translate(-1133.58 -1098.05)"/><path class="cls-1" d="M2472,1299.28c2.16-25.23,4.94-85.8,3.06-134.66h68c15.19,25.24,29.49,50.67,42.71,75.51h.44c.83-24.43,1-49.87.2-75.51h52.47c-2.7,44.83-4.1,89.85-3.7,134.66h-66.5c-15.17-24.62-31-49.46-43.73-73.68h-.45c0,13.11-1,38.35.16,73.68Z" transform="translate(-1133.58 -1098.05)"/><path class="cls-1" d="M2702.79,1237.71c.62-7.07,3.66-14.54,12.77-14.54,7.56,0,11.07,4.65,11.32,10.9l.16,3.64Zm73.19,18.37a73.2,73.2,0,0,0,1.18-15.34c-1.28-33.52-29.54-45-62.42-45-59.39,0-65.64,39.77-65,57.14,1.91,49.06,54.59,49.06,72.15,49.06a249.69,249.69,0,0,0,40.78-3.63l5.12-34.53c-12.54,3.23-26.87,6.66-40.21,6.66-11.12,0-24.73-1.41-25.23-14.33Z" transform="translate(-1133.58 -1098.05)"/><path class="cls-1" d="M2857.62,1232.66a200.19,200.19,0,0,0-.51,21c.27,7.47,1.81,12.92,11.38,12.92,4.89,0,9.5-1.42,14.37-2.63l-5.81,34.33a146.06,146.06,0,0,1-32.78,3.63c-21.77,0-39.3-4.85-40.18-27.66-.54-13.53,1.39-27.26,1.28-41.59h-18l.22-34.32h19.59l.85-18,49.85-10.09-.23,28.06h22.46l.2,34.32Z" transform="translate(-1133.58 -1098.05)"/></svg>